<mxfile host="65bd71144e">
    <diagram id="QsTymviUT69j_Hzill_S" name="Page-1">
        <mxGraphModel dx="651" dy="467" grid="1" gridSize="10" guides="1" tooltips="1" connect="1" arrows="1" fold="1" page="1" pageScale="1" pageWidth="850" pageHeight="1100" math="0" shadow="0">
            <root>
                <mxCell id="0"/>
                <mxCell id="1" parent="0"/>
                <mxCell id="2" value="GerenciadorPlaylist" style="swimlane;fontStyle=0;childLayout=stackLayout;horizontal=1;startSize=26;fillColor=none;horizontalStack=0;resizeParent=1;resizeParentMax=0;resizeLast=0;collapsible=1;marginBottom=0;html=1;" parent="1" vertex="1">
                    <mxGeometry x="20" y="80" width="230" height="206" as="geometry"/>
                </mxCell>
                <mxCell id="3" value="- instance: GerenciadorPlaylist&lt;span style=&quot;&quot;&gt;&lt;br&gt;&lt;/span&gt;" style="text;html=1;strokeColor=none;fillColor=none;align=left;verticalAlign=middle;whiteSpace=wrap;rounded=0;" parent="2" vertex="1">
                    <mxGeometry y="26" width="230" height="30" as="geometry"/>
                </mxCell>
                <mxCell id="5" value="- List&amp;lt;IObserver&amp;gt;: observers" style="text;html=1;strokeColor=none;fillColor=none;align=left;verticalAlign=middle;whiteSpace=wrap;rounded=0;" vertex="1" parent="2">
                    <mxGeometry y="56" width="230" height="30" as="geometry"/>
                </mxCell>
                <mxCell id="10" value="+ getInstance: GerenciadorPlaylist" style="text;html=1;strokeColor=none;fillColor=none;align=left;verticalAlign=middle;rounded=0;whiteSpace=wrap;labelBackgroundColor=none;labelBorderColor=none;" vertex="1" parent="2">
                    <mxGeometry y="86" width="230" height="30" as="geometry"/>
                </mxCell>
                <mxCell id="11" value="+ adicionarObserver(IObserver observer)" style="text;html=1;strokeColor=none;fillColor=none;align=left;verticalAlign=middle;whiteSpace=wrap;rounded=0;labelBackgroundColor=none;labelBorderColor=none;" vertex="1" parent="2">
                    <mxGeometry y="116" width="230" height="30" as="geometry"/>
                </mxCell>
                <mxCell id="12" value="+ removerOberser(IObserver observer)" style="text;html=1;strokeColor=none;fillColor=none;align=left;verticalAlign=middle;whiteSpace=wrap;rounded=0;labelBackgroundColor=none;labelBorderColor=none;" vertex="1" parent="2">
                    <mxGeometry y="146" width="230" height="30" as="geometry"/>
                </mxCell>
                <mxCell id="13" value="+ notificarObservers" style="text;html=1;strokeColor=none;fillColor=none;align=left;verticalAlign=middle;whiteSpace=wrap;rounded=0;labelBackgroundColor=none;labelBorderColor=none;" vertex="1" parent="2">
                    <mxGeometry y="176" width="230" height="30" as="geometry"/>
                </mxCell>
                <mxCell id="14" value="" style="endArrow=none;html=1;exitX=0;exitY=0;exitDx=0;exitDy=0;entryX=1;entryY=0;entryDx=0;entryDy=0;" edge="1" parent="2" source="10" target="10">
                    <mxGeometry width="50" height="50" relative="1" as="geometry">
                        <mxPoint x="290" y="130" as="sourcePoint"/>
                        <mxPoint x="340" y="80" as="targetPoint"/>
                    </mxGeometry>
                </mxCell>
                <mxCell id="15" value="&amp;lt;&amp;lt;Interface&amp;gt;&amp;gt;&lt;br&gt;IModoReproducao" style="swimlane;fontStyle=0;childLayout=stackLayout;horizontal=1;startSize=26;fillColor=none;horizontalStack=0;resizeParent=1;resizeParentMax=0;resizeLast=0;collapsible=1;marginBottom=0;html=1;" vertex="1" parent="1">
                    <mxGeometry x="280" y="70" width="330" height="80" as="geometry"/>
                </mxCell>
                <mxCell id="22" value="" style="endArrow=none;html=1;exitX=0;exitY=0;exitDx=0;exitDy=0;entryX=1;entryY=0;entryDx=0;entryDy=0;" edge="1" parent="15" source="18" target="18">
                    <mxGeometry width="50" height="50" relative="1" as="geometry">
                        <mxPoint x="290" y="130" as="sourcePoint"/>
                        <mxPoint x="340" y="80" as="targetPoint"/>
                    </mxGeometry>
                </mxCell>
                <mxCell id="18" value="+ reproduzir(List&amp;lt;IPlaylistComponent&amp;gt;: playlistComponents)" style="text;html=1;strokeColor=none;fillColor=none;align=left;verticalAlign=bottom;rounded=0;whiteSpace=wrap;labelBackgroundColor=none;labelBorderColor=none;" vertex="1" parent="15">
                    <mxGeometry y="26" width="330" height="54" as="geometry"/>
                </mxCell>
                <mxCell id="23" value="" style="endArrow=none;html=1;exitX=0;exitY=0.5;exitDx=0;exitDy=0;entryX=1;entryY=0.5;entryDx=0;entryDy=0;" edge="1" parent="15" source="18" target="18">
                    <mxGeometry width="50" height="50" relative="1" as="geometry">
                        <mxPoint x="30" y="120" as="sourcePoint"/>
                        <mxPoint x="80" y="70" as="targetPoint"/>
                    </mxGeometry>
                </mxCell>
                <mxCell id="24" value="&amp;lt;&amp;lt;Interface&amp;gt;&amp;gt;&lt;br&gt;IObserver" style="swimlane;fontStyle=0;childLayout=stackLayout;horizontal=1;startSize=26;fillColor=none;horizontalStack=0;resizeParent=1;resizeParentMax=0;resizeLast=0;collapsible=1;marginBottom=0;html=1;" vertex="1" parent="1">
                    <mxGeometry x="280" y="170" width="100" height="80" as="geometry"/>
                </mxCell>
                <mxCell id="25" value="" style="endArrow=none;html=1;exitX=0;exitY=0;exitDx=0;exitDy=0;entryX=1;entryY=0;entryDx=0;entryDy=0;" edge="1" parent="24" source="26" target="26">
                    <mxGeometry width="50" height="50" relative="1" as="geometry">
                        <mxPoint x="290" y="130" as="sourcePoint"/>
                        <mxPoint x="340" y="80" as="targetPoint"/>
                    </mxGeometry>
                </mxCell>
                <mxCell id="26" value="+ atualizar" style="text;html=1;strokeColor=none;fillColor=none;align=left;verticalAlign=bottom;rounded=0;whiteSpace=wrap;labelBackgroundColor=none;labelBorderColor=none;" vertex="1" parent="24">
                    <mxGeometry y="26" width="100" height="54" as="geometry"/>
                </mxCell>
                <mxCell id="27" value="" style="endArrow=none;html=1;exitX=0;exitY=0.5;exitDx=0;exitDy=0;entryX=1;entryY=0.5;entryDx=0;entryDy=0;" edge="1" parent="24" source="26" target="26">
                    <mxGeometry width="50" height="50" relative="1" as="geometry">
                        <mxPoint x="30" y="120" as="sourcePoint"/>
                        <mxPoint x="80" y="70" as="targetPoint"/>
                    </mxGeometry>
                </mxCell>
                <mxCell id="28" value="&amp;lt;&amp;lt;Interface&amp;gt;&amp;gt;&lt;br&gt;IPlaylistComponent" style="swimlane;fontStyle=0;childLayout=stackLayout;horizontal=1;startSize=26;fillColor=none;horizontalStack=0;resizeParent=1;resizeParentMax=0;resizeLast=0;collapsible=1;marginBottom=0;html=1;" vertex="1" parent="1">
                    <mxGeometry x="400" y="170" width="120" height="80" as="geometry"/>
                </mxCell>
                <mxCell id="29" value="" style="endArrow=none;html=1;exitX=0;exitY=0;exitDx=0;exitDy=0;entryX=1;entryY=0;entryDx=0;entryDy=0;" edge="1" parent="28" source="30" target="30">
                    <mxGeometry width="50" height="50" relative="1" as="geometry">
                        <mxPoint x="290" y="130" as="sourcePoint"/>
                        <mxPoint x="340" y="80" as="targetPoint"/>
                    </mxGeometry>
                </mxCell>
                <mxCell id="30" value="+ reproduzir" style="text;html=1;strokeColor=none;fillColor=none;align=left;verticalAlign=bottom;rounded=0;whiteSpace=wrap;labelBackgroundColor=none;labelBorderColor=none;" vertex="1" parent="28">
                    <mxGeometry y="26" width="120" height="54" as="geometry"/>
                </mxCell>
                <mxCell id="31" value="" style="endArrow=none;html=1;exitX=0;exitY=0.5;exitDx=0;exitDy=0;entryX=1;entryY=0.5;entryDx=0;entryDy=0;" edge="1" parent="28" source="30" target="30">
                    <mxGeometry width="50" height="50" relative="1" as="geometry">
                        <mxPoint x="30" y="120" as="sourcePoint"/>
                        <mxPoint x="80" y="70" as="targetPoint"/>
                    </mxGeometry>
                </mxCell>
                <mxCell id="32" value="ModoReproducaoAleatoria" style="swimlane;fontStyle=0;childLayout=stackLayout;horizontal=1;startSize=26;fillColor=none;horizontalStack=0;resizeParent=1;resizeParentMax=0;resizeLast=0;collapsible=1;marginBottom=0;html=1;align=center;" vertex="1" parent="1">
                    <mxGeometry x="20" y="310" width="330" height="80" as="geometry"/>
                </mxCell>
                <mxCell id="33" value="" style="endArrow=none;html=1;exitX=0;exitY=0;exitDx=0;exitDy=0;entryX=1;entryY=0;entryDx=0;entryDy=0;" edge="1" parent="32" source="34" target="34">
                    <mxGeometry width="50" height="50" relative="1" as="geometry">
                        <mxPoint x="290" y="130" as="sourcePoint"/>
                        <mxPoint x="340" y="80" as="targetPoint"/>
                    </mxGeometry>
                </mxCell>
                <mxCell id="34" value="+ reproduzir(List&amp;lt;IPlaylistComponent&amp;gt;: playlistComponents)" style="text;html=1;strokeColor=none;fillColor=none;align=left;verticalAlign=bottom;rounded=0;whiteSpace=wrap;labelBackgroundColor=none;labelBorderColor=none;" vertex="1" parent="32">
                    <mxGeometry y="26" width="330" height="54" as="geometry"/>
                </mxCell>
                <mxCell id="35" value="" style="endArrow=none;html=1;exitX=0;exitY=0.5;exitDx=0;exitDy=0;entryX=1;entryY=0.5;entryDx=0;entryDy=0;" edge="1" parent="32" source="34" target="34">
                    <mxGeometry width="50" height="50" relative="1" as="geometry">
                        <mxPoint x="30" y="120" as="sourcePoint"/>
                        <mxPoint x="80" y="70" as="targetPoint"/>
                    </mxGeometry>
                </mxCell>
                <mxCell id="36" value="ModoReproducaoSequencial" style="swimlane;fontStyle=0;childLayout=stackLayout;horizontal=1;startSize=26;fillColor=none;horizontalStack=0;resizeParent=1;resizeParentMax=0;resizeLast=0;collapsible=1;marginBottom=0;html=1;align=center;" vertex="1" parent="1">
                    <mxGeometry x="20" y="400" width="330" height="80" as="geometry"/>
                </mxCell>
                <mxCell id="37" value="" style="endArrow=none;html=1;exitX=0;exitY=0;exitDx=0;exitDy=0;entryX=1;entryY=0;entryDx=0;entryDy=0;" edge="1" parent="36" source="38" target="38">
                    <mxGeometry width="50" height="50" relative="1" as="geometry">
                        <mxPoint x="290" y="130" as="sourcePoint"/>
                        <mxPoint x="340" y="80" as="targetPoint"/>
                    </mxGeometry>
                </mxCell>
                <mxCell id="38" value="+ reproduzir(List&amp;lt;IPlaylistComponent&amp;gt;: playlistComponents)" style="text;html=1;strokeColor=none;fillColor=none;align=left;verticalAlign=bottom;rounded=0;whiteSpace=wrap;labelBackgroundColor=none;labelBorderColor=none;" vertex="1" parent="36">
                    <mxGeometry y="26" width="330" height="54" as="geometry"/>
                </mxCell>
                <mxCell id="39" value="" style="endArrow=none;html=1;exitX=0;exitY=0.5;exitDx=0;exitDy=0;entryX=1;entryY=0.5;entryDx=0;entryDy=0;" edge="1" parent="36" source="38" target="38">
                    <mxGeometry width="50" height="50" relative="1" as="geometry">
                        <mxPoint x="30" y="120" as="sourcePoint"/>
                        <mxPoint x="80" y="70" as="targetPoint"/>
                    </mxGeometry>
                </mxCell>
                <mxCell id="40" value="Musica" style="swimlane;fontStyle=0;childLayout=stackLayout;horizontal=1;startSize=26;fillColor=none;horizontalStack=0;resizeParent=1;resizeParentMax=0;resizeLast=0;collapsible=1;marginBottom=0;html=1;" vertex="1" parent="1">
                    <mxGeometry x="370" y="270" width="230" height="146" as="geometry"/>
                </mxCell>
                <mxCell id="41" value="&lt;span style=&quot;&quot;&gt;- nome: String&lt;br&gt;&lt;/span&gt;" style="text;html=1;strokeColor=none;fillColor=none;align=left;verticalAlign=middle;whiteSpace=wrap;rounded=0;" vertex="1" parent="40">
                    <mxGeometry y="26" width="230" height="30" as="geometry"/>
                </mxCell>
                <mxCell id="42" value="- artista: String" style="text;html=1;strokeColor=none;fillColor=none;align=left;verticalAlign=middle;whiteSpace=wrap;rounded=0;" vertex="1" parent="40">
                    <mxGeometry y="56" width="230" height="30" as="geometry"/>
                </mxCell>
                <mxCell id="43" value="+ Musica(String: nome, String: artista)" style="text;html=1;strokeColor=none;fillColor=none;align=left;verticalAlign=middle;rounded=0;whiteSpace=wrap;labelBackgroundColor=none;labelBorderColor=none;" vertex="1" parent="40">
                    <mxGeometry y="86" width="230" height="30" as="geometry"/>
                </mxCell>
                <mxCell id="44" value="+ reproduzir()" style="text;html=1;strokeColor=none;fillColor=none;align=left;verticalAlign=middle;whiteSpace=wrap;rounded=0;labelBackgroundColor=none;labelBorderColor=none;" vertex="1" parent="40">
                    <mxGeometry y="116" width="230" height="30" as="geometry"/>
                </mxCell>
                <mxCell id="47" value="" style="endArrow=none;html=1;exitX=0;exitY=0;exitDx=0;exitDy=0;entryX=1;entryY=0;entryDx=0;entryDy=0;" edge="1" parent="40" source="43" target="43">
                    <mxGeometry width="50" height="50" relative="1" as="geometry">
                        <mxPoint x="290" y="130" as="sourcePoint"/>
                        <mxPoint x="340" y="80" as="targetPoint"/>
                    </mxGeometry>
                </mxCell>
                <mxCell id="48" value="Playlist" style="swimlane;fontStyle=0;childLayout=stackLayout;horizontal=1;startSize=26;fillColor=none;horizontalStack=0;resizeParent=1;resizeParentMax=0;resizeLast=0;collapsible=1;marginBottom=0;html=1;" vertex="1" parent="1">
                    <mxGeometry x="20" y="500" width="320" height="206" as="geometry"/>
                </mxCell>
                <mxCell id="49" value="&lt;span style=&quot;&quot;&gt;- nome: String&lt;br&gt;&lt;/span&gt;" style="text;html=1;strokeColor=none;fillColor=none;align=left;verticalAlign=middle;whiteSpace=wrap;rounded=0;" vertex="1" parent="48">
                    <mxGeometry y="26" width="320" height="30" as="geometry"/>
                </mxCell>
                <mxCell id="50" value="- playlistComponents: List&amp;lt;IPlaylistComponents&amp;gt;" style="text;html=1;strokeColor=none;fillColor=none;align=left;verticalAlign=middle;whiteSpace=wrap;rounded=0;" vertex="1" parent="48">
                    <mxGeometry y="56" width="320" height="30" as="geometry"/>
                </mxCell>
                <mxCell id="51" value="+ Playlist(String: nome)" style="text;html=1;strokeColor=none;fillColor=none;align=left;verticalAlign=middle;rounded=0;whiteSpace=wrap;labelBackgroundColor=none;labelBorderColor=none;" vertex="1" parent="48">
                    <mxGeometry y="86" width="320" height="30" as="geometry"/>
                </mxCell>
                <mxCell id="52" value="+ adicionar(List&amp;lt;IPlaylistComponent&amp;gt;: playlistComponente)" style="text;html=1;strokeColor=none;fillColor=none;align=left;verticalAlign=middle;whiteSpace=wrap;rounded=0;labelBackgroundColor=none;labelBorderColor=none;" vertex="1" parent="48">
                    <mxGeometry y="116" width="320" height="30" as="geometry"/>
                </mxCell>
                <mxCell id="53" value="" style="endArrow=none;html=1;exitX=0;exitY=0;exitDx=0;exitDy=0;entryX=1;entryY=0;entryDx=0;entryDy=0;" edge="1" parent="48" source="51" target="51">
                    <mxGeometry width="50" height="50" relative="1" as="geometry">
                        <mxPoint x="290" y="130" as="sourcePoint"/>
                        <mxPoint x="340" y="80" as="targetPoint"/>
                    </mxGeometry>
                </mxCell>
                <mxCell id="54" value="+ remover(List&amp;lt;IPlaylistComponent&amp;gt;: playlistComponente)" style="text;html=1;strokeColor=none;fillColor=none;align=left;verticalAlign=middle;whiteSpace=wrap;rounded=0;labelBackgroundColor=none;labelBorderColor=none;" vertex="1" parent="48">
                    <mxGeometry y="146" width="320" height="30" as="geometry"/>
                </mxCell>
                <mxCell id="55" value="+ reproduzir()" style="text;html=1;strokeColor=none;fillColor=none;align=left;verticalAlign=middle;whiteSpace=wrap;rounded=0;labelBackgroundColor=none;labelBorderColor=none;" vertex="1" parent="48">
                    <mxGeometry y="176" width="320" height="30" as="geometry"/>
                </mxCell>
                <mxCell id="56" value="PlaylistObserver" style="swimlane;fontStyle=0;childLayout=stackLayout;horizontal=1;startSize=26;fillColor=none;horizontalStack=0;resizeParent=1;resizeParentMax=0;resizeLast=0;collapsible=1;marginBottom=0;html=1;" vertex="1" parent="1">
                    <mxGeometry x="370" y="440" width="180" height="116" as="geometry"/>
                </mxCell>
                <mxCell id="57" value="&lt;span style=&quot;&quot;&gt;- nome: String&lt;br&gt;&lt;/span&gt;" style="text;html=1;strokeColor=none;fillColor=none;align=left;verticalAlign=middle;whiteSpace=wrap;rounded=0;" vertex="1" parent="56">
                    <mxGeometry y="26" width="180" height="30" as="geometry"/>
                </mxCell>
                <mxCell id="59" value="+ PlaylistObserver(String: nome)" style="text;html=1;strokeColor=none;fillColor=none;align=left;verticalAlign=middle;rounded=0;whiteSpace=wrap;labelBackgroundColor=none;labelBorderColor=none;" vertex="1" parent="56">
                    <mxGeometry y="56" width="180" height="30" as="geometry"/>
                </mxCell>
                <mxCell id="60" value="+ atualizer()" style="text;html=1;strokeColor=none;fillColor=none;align=left;verticalAlign=middle;whiteSpace=wrap;rounded=0;labelBackgroundColor=none;labelBorderColor=none;" vertex="1" parent="56">
                    <mxGeometry y="86" width="180" height="30" as="geometry"/>
                </mxCell>
                <mxCell id="61" value="" style="endArrow=none;html=1;exitX=0;exitY=0;exitDx=0;exitDy=0;entryX=1;entryY=0;entryDx=0;entryDy=0;" edge="1" parent="56" source="59" target="59">
                    <mxGeometry width="50" height="50" relative="1" as="geometry">
                        <mxPoint x="290" y="130" as="sourcePoint"/>
                        <mxPoint x="340" y="80" as="targetPoint"/>
                    </mxGeometry>
                </mxCell>
                <mxCell id="68" value="ReproducaoMusicaFacade" style="swimlane;fontStyle=0;childLayout=stackLayout;horizontal=1;startSize=26;fillColor=none;horizontalStack=0;resizeParent=1;resizeParentMax=0;resizeLast=0;collapsible=1;marginBottom=0;html=1;" vertex="1" parent="1">
                    <mxGeometry x="20" y="730" width="620" height="146" as="geometry"/>
                </mxCell>
                <mxCell id="69" value="&lt;span style=&quot;&quot;&gt;- playlistComponents: List&amp;lt;IPlaylistComponents&amp;gt;&lt;br&gt;&lt;/span&gt;" style="text;html=1;strokeColor=none;fillColor=none;align=left;verticalAlign=middle;whiteSpace=wrap;rounded=0;" vertex="1" parent="68">
                    <mxGeometry y="26" width="620" height="30" as="geometry"/>
                </mxCell>
                <mxCell id="70" value="- modoReproducao: IModoReproducao" style="text;html=1;strokeColor=none;fillColor=none;align=left;verticalAlign=middle;whiteSpace=wrap;rounded=0;" vertex="1" parent="68">
                    <mxGeometry y="56" width="620" height="30" as="geometry"/>
                </mxCell>
                <mxCell id="71" value="+ ReproducaoMusicaFacade(List&amp;lt;PlaylistComponent&amp;gt; playlistComponents, IModoReproducao: modoReproducao)" style="text;html=1;strokeColor=none;fillColor=none;align=left;verticalAlign=middle;rounded=0;whiteSpace=wrap;labelBackgroundColor=none;labelBorderColor=none;" vertex="1" parent="68">
                    <mxGeometry y="86" width="620" height="30" as="geometry"/>
                </mxCell>
                <mxCell id="72" value="+ reproduzir()" style="text;html=1;strokeColor=none;fillColor=none;align=left;verticalAlign=middle;whiteSpace=wrap;rounded=0;labelBackgroundColor=none;labelBorderColor=none;" vertex="1" parent="68">
                    <mxGeometry y="116" width="620" height="30" as="geometry"/>
                </mxCell>
                <mxCell id="73" value="" style="endArrow=none;html=1;exitX=0;exitY=0;exitDx=0;exitDy=0;entryX=1;entryY=0;entryDx=0;entryDy=0;" edge="1" parent="68" source="71" target="71">
                    <mxGeometry width="50" height="50" relative="1" as="geometry">
                        <mxPoint x="290" y="130" as="sourcePoint"/>
                        <mxPoint x="340" y="80" as="targetPoint"/>
                    </mxGeometry>
                </mxCell>
            </root>
        </mxGraphModel>
    </diagram>
</mxfile>